<svg width="1400" height="900" viewBox="0 0 1400 900" fill="none" xmlns="http://www.w3.org/2000/svg">
  <rect width="1400" height="900" fill="#0F172A"/>
  <rect x="0" y="540" width="1400" height="360" fill="#1E293B"/>
  <rect x="70" y="130" width="760" height="520" rx="28" fill="#111827" stroke="#334155"/>
  <rect x="108" y="170" width="684" height="56" rx="12" fill="#1F2937"/>
  <rect x="108" y="252" width="320" height="280" rx="16" fill="#0B1220" stroke="#374151"/>
  <rect x="448" y="252" width="344" height="134" rx="16" fill="#111827" stroke="#4B5563"/>
  <rect x="448" y="398" width="344" height="134" rx="16" fill="#111827" stroke="#4B5563"/>
  <rect x="108" y="560" width="684" height="50" rx="10" fill="#1F2937"/>
  <rect x="112" y="174" width="240" height="48" rx="10" fill="#F59E0B" fill-opacity="0.2"/>
  <rect x="146" y="294" width="242" height="200" rx="14" fill="#F8FAFC"/>
  <rect x="168" y="316" width="198" height="34" rx="8" fill="#0F172A"/>
  <rect x="168" y="364" width="198" height="14" rx="7" fill="#CBD5E1"/>
  <rect x="168" y="386" width="156" height="14" rx="7" fill="#CBD5E1"/>
  <rect x="168" y="438" width="198" height="30" rx="9" fill="#F59E0B"/>
  <rect x="900" y="170" width="430" height="640" rx="32" fill="#111827" stroke="#334155"/>
  <rect x="948" y="244" width="334" height="226" rx="18" fill="#1F2937"/>
  <rect x="984" y="278" width="262" height="38" rx="12" fill="#F59E0B" fill-opacity="0.25"/>
  <rect x="984" y="336" width="188" height="16" rx="8" fill="#E2E8F0"/>
  <rect x="984" y="364" width="248" height="16" rx="8" fill="#94A3B8"/>
  <rect x="984" y="392" width="170" height="16" rx="8" fill="#94A3B8"/>
  <rect x="948" y="498" width="334" height="254" rx="18" fill="#0F172A" stroke="#334155"/>
  <rect x="982" y="532" width="266" height="24" rx="8" fill="#F1F5F9"/>
  <rect x="982" y="570" width="300" height="14" rx="7" fill="#64748B"/>
  <rect x="982" y="596" width="240" height="14" rx="7" fill="#64748B"/>
  <rect x="982" y="644" width="140" height="64" rx="12" fill="#F59E0B"/>
  <circle cx="110" cy="94" r="3" fill="#F59E0B"/>
  <circle cx="132" cy="94" r="3" fill="#F59E0B"/>
  <circle cx="154" cy="94" r="3" fill="#F59E0B"/>
</svg>
