<svg width="1200" height="800" viewBox="0 0 1200 800" fill="none" xmlns="http://www.w3.org/2000/svg">
  <rect width="1200" height="800" fill="#020617"/>
  <rect x="70" y="80" width="1060" height="640" rx="30" fill="#0F172A" stroke="#334155"/>
  <rect x="130" y="150" width="280" height="500" rx="22" fill="#111827"/>
  <rect x="170" y="194" width="200" height="20" rx="8" fill="#E2E8F0"/>
  <rect x="170" y="230" width="220" height="14" rx="7" fill="#64748B"/>
  <rect x="170" y="276" width="200" height="74" rx="12" fill="#F59E0B" fill-opacity="0.2"/>
  <rect x="170" y="370" width="200" height="74" rx="12" fill="#0EA5E9" fill-opacity="0.2"/>
  <rect x="170" y="464" width="200" height="74" rx="12" fill="#6366F1" fill-opacity="0.25"/>
  <rect x="450" y="150" width="610" height="230" rx="22" fill="#111827"/>
  <rect x="490" y="194" width="260" height="24" rx="8" fill="#F8FAFC"/>
  <rect x="490" y="236" width="530" height="14" rx="7" fill="#64748B"/>
  <rect x="490" y="266" width="420" height="14" rx="7" fill="#64748B"/>
  <rect x="450" y="420" width="610" height="230" rx="22" fill="#111827"/>
  <rect x="490" y="464" width="224" height="24" rx="8" fill="#F8FAFC"/>
  <rect x="490" y="508" width="530" height="14" rx="7" fill="#64748B"/>
  <rect x="490" y="538" width="470" height="14" rx="7" fill="#64748B"/>
  <path d="M410 311H451" stroke="#F59E0B" stroke-width="4"/>
  <path d="M410 406H451" stroke="#0EA5E9" stroke-width="4"/>
</svg>
